<?xml version="1.0" encoding="iso-8859-1"?>
<!-- Generator: Adobe Illustrator 24.0.3, SVG Export Plug-In . SVG Version: 6.00 Build 0)  -->
<svg version="1.1" xmlns="http://www.w3.org/2000/svg" xmlns:xlink="http://www.w3.org/1999/xlink" x="0px" y="0px"
	 viewBox="0 0 64 64" style="enable-background:new 0 0 64 64;" xml:space="preserve">
<g id="cutting-hairs">
	<path style="fill:#231F20;" d="M63.88,39.41c-0.279-1.257-1.03-2.339-2.121-3.037s-2.391-0.925-3.657-0.646
		c-0.969,0.218-1.833,0.724-2.496,1.44l-3.901-2.487l3.709-2.775c0.916,0.855,2.095,1.3,3.299,1.3c1.004,0,2.025-0.314,2.889-0.96
		c2.147-1.597,2.583-4.643,0.986-6.782c-1.597-2.138-4.643-2.583-6.782-0.986c-1.903,1.423-2.453,3.971-1.431,6.031l-4.25,3.168
		l-6.328-4.032c-0.017-1.798,0-3.605,0.07-5.438c0.209-5.883-1.571-10.954-5.141-14.645C35.339,6.043,30.6,4.079,25.355,3.983
		h-0.445c-5.245,0.096-9.985,2.06-13.371,5.577c-3.57,3.692-5.35,8.763-5.141,14.645c0.297,8.361-0.236,16.304-1.554,23.653
		C1.946,48.941,0,51.69,0,54.858v5.158h1.746v-5.158c0-2.679,1.815-4.966,4.451-5.586l0.166,0.026
		c0.009-0.026,0.009-0.052,0.017-0.079l12.856-3.317c0.384-0.096,0.655-0.445,0.655-0.847v-3.343
		c2.304,1.545,4.434,1.842,5.699,1.842c0.192,0,0.358-0.009,0.506-0.017c1.815-0.113,3.526-0.751,5.088-1.789v3.308
		c0,0.402,0.271,0.751,0.655,0.847l13.013,3.351c2.636,0.593,4.477,2.898,4.477,5.603v5.158h1.746v-5.158
		c0-3.491-2.348-6.459-5.708-7.27c-0.428-2.409-0.768-4.888-1.021-7.419l5.856-4.373l4.469,2.845
		c-0.864,2.121-0.122,4.635,1.876,5.909c0.786,0.497,1.684,0.759,2.592,0.759c0.358,0,0.707-0.035,1.065-0.113
		c1.257-0.288,2.339-1.039,3.037-2.13C63.932,41.976,64.168,40.676,63.88,39.41z M56.854,25.873c0.55-0.41,1.204-0.611,1.85-0.611
		c0.943,0,1.876,0.428,2.487,1.248c1.021,1.37,0.742,3.317-0.628,4.338c-1.37,1.021-3.317,0.733-4.338-0.628
		C55.195,28.849,55.483,26.903,56.854,25.873z M25.983,41.801c-5.699,0.332-10.5-5.464-12.926-15.632
		c1.754-0.375,5.691-1.44,9.086-3.84c4.425,7.305,11.949,5.629,15.082,4.521C36.186,34.199,32.154,41.4,25.983,41.801z
		 M32.93,44.385v-4.024c3.317-3.16,5.638-8.431,6.206-14.803c0.026-0.314-0.122-0.62-0.384-0.794
		c-0.262-0.183-0.602-0.201-0.89-0.052c-0.393,0.192-9.531,4.731-14.331-3.474c3.29-2.906,2.889-5.324,2.819-5.621l-1.702,0.375
		c0.009,0.017,0.288,2.191-3.413,4.844c-4.102,2.941-9.313,3.779-9.365,3.788c-0.244,0.035-0.454,0.166-0.593,0.367
		c-0.131,0.201-0.183,0.445-0.131,0.681c1.693,7.707,4.355,12.114,7,14.637v4.076l-11.434,2.95
		c1.231-7.235,1.719-15.021,1.431-23.19c-0.192-5.403,1.414-10.028,4.652-13.371c3.107-3.221,7.48-5.01,12.333-5.045
		c4.861,0.035,9.234,1.824,12.341,5.045c3.229,3.343,4.844,7.969,4.652,13.371c-0.183,5.237-0.044,10.325,0.393,15.213l-4.6,3.43
		l1.047,1.396l3.762-2.802c0.218,1.946,0.48,3.858,0.794,5.726L32.93,44.385z M44.163,38.127c-0.166-2.095-0.279-4.224-0.332-6.389
		l4.8,3.055L44.163,38.127z M61.768,42.124c-0.445,0.698-1.135,1.187-1.946,1.362c-0.803,0.183-1.632,0.035-2.33-0.41
		c-0.934-0.585-1.44-1.588-1.44-2.618c0-0.567,0.157-1.143,0.489-1.658c0.445-0.698,1.135-1.187,1.946-1.362
		c0.218-0.052,0.445-0.079,0.672-0.079c0.585,0,1.161,0.166,1.658,0.489c0.698,0.445,1.187,1.135,1.362,1.946
		C62.361,40.597,62.213,41.426,61.768,42.124z"/>
</g>
<g id="Layer_1">
</g>
</svg>
